<mxfile host="app.diagrams.net" agent="Mozilla/5.0 (Windows NT 10.0; Win64; x64) AppleWebKit/537.36 (KHTML, like Gecko) Chrome/128.0.0.0 Safari/537.36" version="24.7.12">
  <diagram id="C5RBs43oDa-KdzZeNtuy" name="Page-1">
    <mxGraphModel dx="1050" dy="557" grid="1" gridSize="10" guides="1" tooltips="1" connect="1" arrows="1" fold="1" page="1" pageScale="1" pageWidth="827" pageHeight="1169" math="0" shadow="0">
      <root>
        <mxCell id="WIyWlLk6GJQsqaUBKTNV-0" />
        <mxCell id="WIyWlLk6GJQsqaUBKTNV-1" parent="WIyWlLk6GJQsqaUBKTNV-0" />
        <mxCell id="zkfFHV4jXpPFQw0GAbJ--0" value="Onibus&#xa;&#xa;" style="swimlane;fontStyle=2;align=center;verticalAlign=top;childLayout=stackLayout;horizontal=1;startSize=26;horizontalStack=0;resizeParent=1;resizeLast=0;collapsible=1;marginBottom=0;rounded=0;shadow=0;strokeWidth=1;" parent="WIyWlLk6GJQsqaUBKTNV-1" vertex="1">
          <mxGeometry x="220" y="120" width="420" height="740" as="geometry">
            <mxRectangle x="230" y="140" width="160" height="26" as="alternateBounds" />
          </mxGeometry>
        </mxCell>
        <mxCell id="zkfFHV4jXpPFQw0GAbJ--1" value="rota : int;&#xa;&#xa;capacidade : int;&#xa;&#xa;numero : int;&#xa;&#xa;quantidade : int;&#xa;&#xa;passageiros[] : Passageiro[];&#xa;&#xa;motorista : Motorista" style="text;align=left;verticalAlign=top;spacingLeft=4;spacingRight=4;overflow=hidden;rotatable=0;points=[[0,0.5],[1,0.5]];portConstraint=eastwest;" parent="zkfFHV4jXpPFQw0GAbJ--0" vertex="1">
          <mxGeometry y="26" width="420" height="174" as="geometry" />
        </mxCell>
        <mxCell id="zkfFHV4jXpPFQw0GAbJ--4" value="" style="line;html=1;strokeWidth=1;align=left;verticalAlign=middle;spacingTop=-1;spacingLeft=3;spacingRight=3;rotatable=0;labelPosition=right;points=[];portConstraint=eastwest;" parent="zkfFHV4jXpPFQw0GAbJ--0" vertex="1">
          <mxGeometry y="200" width="420" height="8" as="geometry" />
        </mxCell>
        <mxCell id="zkfFHV4jXpPFQw0GAbJ--5" value="inicializarPassageiros() : void;&#xa;&#xa;getMotorista() : Motorista;&#xa;&#xa;setMotorista(Motorista motorista) : void;&#xa;&#xa;getCapacidade() : int;&#xa;&#xa;setCapacidade(int capacidade) : void;&#xa;&#xa;getRota() : int;&#xa;&#xa;setRota(int rota) : void;&#xa;&#xa;getNumero() : int;&#xa;&#xa;setNumero(int numero) : void;&#xa;&#xa;getQuantidade() : int;&#xa;&#xa;getPassageiros() : Passageiro[];&#xa;&#xa;exibirPassageiros() : void;&#xa;&#xa;adicionarPassageiro(Passageiro passageiro) : boolean;&#xa;&#xa;adicionarPassageiroPosicao(Passageiro passageiro, int posicao) : boolean;&#xa;&#xa;buscarPassageiroNome(String nome) : Passageiro;&#xa;&#xa;buscarPassageiroPosicao(int posicao) : Passageiro;&#xa;&#xa;RemoverTodosPassageiro() : boolean;&#xa;&#xa;RemoverPassageiro(String nome) : boolean;&#xa;" style="text;align=left;verticalAlign=top;spacingLeft=4;spacingRight=4;overflow=hidden;rotatable=0;points=[[0,0.5],[1,0.5]];portConstraint=eastwest;" parent="zkfFHV4jXpPFQw0GAbJ--0" vertex="1">
          <mxGeometry y="208" width="420" height="532" as="geometry" />
        </mxCell>
      </root>
    </mxGraphModel>
  </diagram>
</mxfile>
